# 3ds Max Wavefront OBJ Exporter v0.99 - (c)2007 guruware
# File Created: 26.12.2020 19:11:54

mtllib hud_arrow.mtl

#
# object Box001
#

v  -2.8353 2.3569 -2.6392
v  -3.8425 2.0192 -2.7250
v  0.0424 1.5874 -2.7196
v  0.0424 2.0206 -2.6036
v  -4.2888 1.8369 -3.7795
v  0.0424 1.3890 -3.7747
v  4.3737 1.8369 -3.7795
v  3.9273 2.0192 -2.7250
v  2.9201 2.3569 -2.6392
v  -2.8353 4.2784 -2.6632
v  0.0424 4.6169 -2.6360
v  0.0424 5.0416 -2.7626
v  -3.8425 4.6098 -2.7572
v  2.9201 4.2784 -2.6632
v  3.9273 4.6098 -2.7572
v  4.3737 4.5247 -3.8085
v  0.0424 4.9726 -3.8133
v  -4.2888 4.5247 -3.8085
v  0.0424 3.3202 -2.5794
v  -3.8425 3.3188 -2.6198
v  3.9273 3.3188 -2.6198
v  5.2223 3.3145 -2.7411
v  5.8174 3.1808 -3.7940
v  3.8272 0.2545 -41.7836
v  0.0424 0.2221 -45.0212
v  0.0424 0.8885 -49.8458
v  3.1380 1.0178 -46.1580
v  -3.7424 0.2545 -41.7836
v  -3.0531 1.0178 -46.1580
v  -3.7424 2.0897 -41.7356
v  0.0424 1.8952 -44.9675
v  3.8272 2.0897 -41.7356
v  -8.8145 0.4797 -9.8037
v  -5.6278 1.2930 -6.6195
v  -7.5179 2.7910 -6.6292
v  -10.5532 2.4027 -9.4241
v  -5.7325 3.1808 -3.7940
v  -5.6278 4.2891 -6.6390
v  -8.8145 4.2291 -9.8136
v  8.8993 0.4797 -9.8037
v  0.0424 0.1984 -9.5021
v  0.0424 0.0000 -10.6906
v  8.6998 0.0000 -10.6589
v  -8.6150 0.0000 -10.6589
v  -7.8896 0.0000 -15.2936
v  0.0424 0.0000 -15.8028
v  7.9745 0.0000 -15.2936
v  -17.6719 1.0100 -10.4053
v  -18.6484 2.2725 -10.3771
v  -19.8984 2.2703 -10.4415
v  -18.6387 0.5676 -10.4697
v  -17.6719 3.5329 -10.4105
v  -18.6387 3.9707 -10.4766
v  -18.4936 3.8580 -12.2430
v  -19.8984 2.2250 -11.7328
v  -18.4936 0.5562 -12.2396
v  0.0424 4.6010 -9.5156
v  0.0424 4.5227 -10.6993
v  -8.6150 4.5250 -10.6677
v  8.8993 4.2291 -9.8136
v  8.6998 4.5250 -10.6677
v  7.9745 4.2003 -15.2911
v  0.0424 4.1647 -15.7990
v  -7.8896 4.2003 -15.2911
v  17.7567 3.5329 -10.4105
v  18.7332 2.2725 -10.3771
v  19.9832 2.2703 -10.4415
v  18.7236 3.9707 -10.4766
v  17.7567 1.0100 -10.4053
v  18.7236 0.5676 -10.4697
v  18.5785 0.5562 -12.2396
v  19.9832 2.2250 -11.7328
v  18.5785 3.8580 -12.2430
v  -14.8984 2.2733 -10.3557
v  -14.8887 0.5683 -10.4053
v  -14.8887 3.9745 -10.4123
v  -14.8598 4.5316 -10.5727
v  -14.2795 4.3073 -13.7674
v  -10.4104 1.4058 -35.0946
v  -10.9617 2.6733 -32.0399
v  -10.9617 0.3514 -32.0709
v  -15.9265 0.8163 -23.9199
v  -17.5264 1.8368 -22.8042
v  -15.9265 2.7794 -23.9055
v  -5.8100 0.0000 -28.5820
v  -12.6158 0.0000 -22.9484
v  -14.2795 0.0000 -13.7663
v  -18.0777 0.5238 -17.3143
v  10.6381 2.4027 -9.4241
v  14.9832 2.2733 -10.3557
v  14.9736 3.9745 -10.4123
v  14.9736 0.5683 -10.4053
v  14.9447 0.0000 -10.5637
v  14.3644 0.0000 -13.7663
v  10.4952 1.4058 -35.0946
v  11.0466 0.3514 -32.0709
v  11.0466 2.6733 -32.0399
v  16.0114 2.7794 -23.9055
v  17.6112 1.8368 -22.8042
v  16.0114 0.8163 -23.9199
v  5.8948 3.2695 -28.5468
v  12.7007 3.6641 -22.9270
v  14.3644 4.3073 -13.7674
v  18.1626 3.5350 -17.3075
v  0.0424 0.7937 -6.6162
v  5.7127 1.2930 -6.6195
v  5.7127 4.2891 -6.6390
v  0.0424 4.7884 -6.6423
v  7.6028 2.7910 -6.6292
v  -5.1374 3.3145 -2.7411
v  0.0424 0.0000 -30.4599
v  5.8948 0.0000 -28.5820
v  -18.0777 3.5350 -17.3075
v  -19.8984 2.0951 -15.4353
v  0.0424 3.1380 -30.4201
v  -5.8100 3.2695 -28.5468
v  18.1626 0.5238 -17.3143
v  19.9832 2.0951 -15.4353
v  -12.6158 3.6641 -22.9270
v  -14.8598 0.0000 -10.5637
v  12.7007 0.0000 -22.9484
v  14.9447 4.5316 -10.5727
# 122 vertices

vn -0.0299 -0.0973 0.9948
vn -0.2697 -0.6340 0.7248
vn -0.0000 -0.7496 0.6619
vn 0.0000 -0.1483 0.9889
vn -0.3808 -0.8646 0.3279
vn -0.0000 -0.9808 0.1951
vn 0.3808 -0.8646 0.3279
vn 0.2697 -0.6340 0.7248
vn 0.0299 -0.0973 0.9948
vn -0.0301 0.1227 0.9920
vn 0.0000 0.1746 0.9846
vn 0.0000 0.8345 0.5510
vn -0.2862 0.7223 0.6296
vn 0.0301 0.1227 0.9920
vn 0.2862 0.7223 0.6296
vn 0.4029 0.9092 0.1045
vn 0.0000 0.9979 -0.0652
vn -0.4029 0.9092 0.1045
vn 0.0000 0.0125 0.9999
vn -0.0731 0.0128 0.9972
vn 0.0731 0.0128 0.9972
vn 0.6681 0.0512 0.7423
vn 0.8572 0.0357 0.5137
vn 0.1605 -0.9793 -0.1231
vn 0.0000 -0.9947 -0.1033
vn 0.0000 -0.0337 -0.9994
vn 0.7789 -0.0166 -0.6270
vn -0.1605 -0.9793 -0.1231
vn -0.7789 -0.0166 -0.6270
vn -0.1558 0.9698 -0.1878
vn -0.0000 0.9855 -0.1699
vn 0.1558 0.9698 -0.1878
vn -0.1930 -0.7740 0.6031
vn -0.3041 -0.8636 0.4021
vn -0.7389 0.0399 0.6726
vn -0.3635 0.0144 0.9315
vn -0.8572 0.0357 0.5137
vn -0.3313 0.9272 0.1747
vn -0.2296 0.8551 0.4649
vn 0.1930 -0.7740 0.6031
vn 0.0000 -0.9830 0.1837
vn 0.0000 -0.9966 0.0824
vn -0.0022 -0.9676 0.2524
vn 0.0022 -0.9676 0.2524
vn 0.0000 -1.0000 -0.0000
vn -0.0174 -0.0650 0.9977
vn -0.0381 0.0022 0.9993
vn -0.8122 0.0111 0.5832
vn -0.4251 -0.6849 0.5918
vn -0.0174 0.0695 0.9974
vn -0.4277 0.7038 0.5673
vn -0.4846 0.8695 -0.0953
vn -1.0000 0.0000 -0.0000
vn -0.4866 -0.8729 -0.0343
vn 0.0000 0.9979 -0.0655
vn 0.0000 0.9977 -0.0680
vn 0.0017 0.9914 0.1310
vn 0.2296 0.8551 0.4649
vn -0.0017 0.9914 0.1310
vn -0.0000 0.9975 -0.0700
vn 0.0000 0.9975 -0.0700
vn 0.0174 0.0695 0.9974
vn 0.0381 0.0022 0.9993
vn 0.8122 0.0111 0.5832
vn 0.4277 0.7038 0.5673
vn 0.0174 -0.0650 0.9977
vn 0.4251 -0.6849 0.5918
vn 0.4866 -0.8729 -0.0343
vn 1.0000 0.0000 -0.0000
vn 0.4846 0.8695 -0.0953
vn -0.1081 0.0018 0.9941
vn -0.0626 -0.1574 0.9855
vn -0.0646 0.1628 0.9845
vn -0.0551 0.8319 0.5522
vn -0.0698 0.9941 -0.0825
vn -0.8386 -0.0064 -0.5448
vn -0.3779 0.8831 -0.2782
vn -0.3887 -0.8941 -0.2224
vn -0.5243 -0.8112 -0.2589
vn -0.9349 -0.0068 -0.3548
vn -0.5139 0.8000 -0.3097
vn -0.0082 -0.9999 -0.0121
vn -0.0820 -0.9960 -0.0346
vn -0.0701 -0.9975 -0.0127
vn -0.4911 -0.8605 -0.1358
vn 0.3635 0.0144 0.9315
vn 0.1081 0.0018 0.9941
vn 0.0646 0.1628 0.9845
vn 0.0626 -0.1574 0.9855
vn 0.0542 -0.8098 0.5842
vn 0.0701 -0.9975 -0.0127
vn 0.8386 -0.0064 -0.5448
vn 0.3887 -0.8941 -0.2224
vn 0.3779 0.8831 -0.2782
vn 0.5139 0.8000 -0.3097
vn 0.9349 -0.0068 -0.3548
vn 0.5243 -0.8112 -0.2589
vn 0.0081 0.9966 -0.0820
vn 0.0813 0.9913 -0.1039
vn 0.0698 0.9941 -0.0825
vn 0.4843 0.8534 -0.1928
vn 0.0000 -0.9791 0.2035
vn 0.3041 -0.8636 0.4021
vn 0.3313 0.9272 0.1747
vn 0.0000 0.9979 -0.0650
vn 0.7389 0.0399 0.6726
vn -0.6681 0.0512 0.7423
vn 0.0000 -1.0000 -0.0091
vn 0.0082 -0.9999 -0.0121
vn -0.4843 0.8534 -0.1928
vn -0.9964 -0.0024 -0.0847
vn -0.0000 0.9969 -0.0791
vn -0.0081 0.9966 -0.0820
vn 0.4911 -0.8605 -0.1358
vn 0.9964 -0.0024 -0.0847
vn -0.0813 0.9913 -0.1039
vn -0.0542 -0.8098 0.5842
vn 0.0820 -0.9960 -0.0346
vn 0.0551 0.8319 0.5522
# 119 vertex normals

vt 1.0000 0.0000 0.0000
vt 1.0000 0.0103 0.0000
vt 0.5000 0.0103 0.0000
vt 0.5000 0.1276 0.0000
vt 1.0000 0.0207 0.0000
vt 0.5000 0.1405 0.0000
vt 0.0000 0.0207 0.0000
vt 0.0000 0.0103 0.0000
vt 0.0000 0.0000 0.0000
vt 0.5000 0.0000 0.0000
vt 0.5000 0.5000 0.0000
vt 0.0000 0.5000 0.0000
vt 1.0000 0.5000 0.0000
vt 1.0000 1.0000 0.0000
vt 0.5000 1.0000 0.0000
vt 0.0000 1.0000 0.0000
vt 0.0103 0.0000 0.0000
vt 0.0103 0.5000 0.0000
vt 0.0207 0.0000 0.0000
vt 0.1405 0.5000 0.0000
vt 0.0207 1.0000 0.0000
vt 0.0103 1.0000 0.0000
vt 0.1250 0.1250 0.0000
vt 0.5000 0.1250 0.0000
vt 0.1250 0.5000 0.0000
vt 0.8750 0.1250 0.0000
vt 0.8750 0.5000 0.0000
vt 0.8750 0.8750 0.0000
vt 0.5000 0.8750 0.0000
vt 0.1250 0.8750 0.0000
vt 0.4897 0.0000 0.0000
vt 0.4897 0.5000 0.0000
vt 0.9793 0.0000 0.0000
vt 0.8595 0.5000 0.0000
vt 0.9793 1.0000 0.0000
vt 0.4897 1.0000 0.0000
vt 0.1250 0.0000 0.0000
vt 0.8750 0.0000 0.0000
vt 1.0000 0.2222 0.0000
vt 1.0000 0.1250 0.0000
vt 1.0000 0.7778 0.0000
vt 1.0000 0.8750 0.0000
vt 0.5000 0.8776 0.0000
vt 0.8750 1.0000 0.0000
vt 0.1250 1.0000 0.0000
vt 0.0000 0.7778 0.0000
vt 0.0000 0.8750 0.0000
vt 0.0000 0.2222 0.0000
vt 0.0000 0.1250 0.0000
vt 1.0000 0.5103 0.0000
vt 0.5000 0.5103 0.0000
vt 0.0000 0.5103 0.0000
vt 0.5103 0.0000 0.0000
vt 0.5103 0.5000 0.0000
vt 0.5103 1.0000 0.0000
vt 0.9897 0.0000 0.0000
vt 0.9897 0.5000 0.0000
vt 0.9897 1.0000 0.0000
# 58 texture coords

o Box001
g Box001
usemtl wire_006135058
s 1
f 1/1/1 2/2/2 3/3/3 4/4/4 
f 2/2/2 5/5/5 6/6/6 3/3/3 
f 3/3/3 6/6/6 7/7/7 8/8/8 
f 4/4/4 3/3/3 8/8/8 9/9/9 
f 10/9/10 11/10/11 12/3/12 13/8/13 
f 11/10/11 14/1/14 15/2/15 12/3/12 
f 12/3/12 15/2/15 16/5/16 17/6/17 
f 13/8/13 12/3/12 17/6/17 18/7/18 
f 1/9/1 4/4/4 19/11/19 20/12/20 
f 4/4/4 9/1/9 21/13/21 19/11/19 
f 19/11/19 21/13/21 14/14/14 11/15/11 
f 20/12/20 19/11/19 11/15/11 10/16/10 
f 9/9/9 8/17/8 22/18/22 21/12/21 
f 8/17/8 7/19/7 23/20/23 22/18/22 
f 22/18/22 23/20/23 16/21/16 15/22/15 
f 21/12/21 22/18/22 15/22/15 14/16/14 
f 24/23/24 25/24/25 26/11/26 27/25/27 
f 25/24/25 28/26/28 29/27/29 26/11/26 
f 26/11/26 29/27/29 30/28/30 31/29/31 
f 27/25/27 26/11/26 31/29/31 32/30/32 
f 33/9/33 34/31/34 35/32/35 36/12/36 
f 34/31/34 5/33/5 37/34/37 35/32/35 
f 35/32/35 37/34/37 18/35/18 38/36/38 
f 36/12/36 35/32/35 38/36/38 39/16/39 
f 40/9/40 41/10/41 42/10/42 43/37/43 
f 41/10/41 33/1/33 44/38/44 42/10/42 
f 42/10/42 44/38/44 45/38/45 46/10/45 
f 43/37/43 42/10/42 46/10/45 47/37/45 
f 48/39/46 49/13/47 50/13/48 51/40/49 
f 49/13/47 52/41/50 53/42/51 50/13/48 
f 50/13/48 53/42/51 54/42/52 55/13/53 
f 51/40/49 50/13/48 55/13/53 56/40/54 
f 39/14/39 57/43/55 58/15/56 59/44/57 
f 57/43/55 60/16/58 61/45/59 58/15/56 
f 58/15/56 61/45/59 62/45/60 63/15/61 
f 59/44/57 58/15/56 63/15/61 64/44/61 
f 65/46/62 66/12/63 67/12/64 68/47/65 
f 66/12/63 69/48/66 70/49/67 67/12/64 
f 67/12/64 70/49/67 71/49/68 72/12/69 
f 68/47/65 67/12/64 72/12/69 73/47/70 
f 33/1/33 36/13/36 74/13/71 75/40/72 
f 36/13/36 39/14/39 76/42/73 74/13/71 
f 74/13/71 76/42/73 52/41/50 49/13/47 
f 75/40/72 74/13/71 49/13/47 48/39/46 
f 39/14/39 59/44/57 77/14/74 76/42/73 
f 59/44/57 64/44/61 78/14/75 77/14/74 
f 77/14/74 78/14/75 54/42/52 53/42/51 
f 76/42/73 77/14/74 53/42/51 52/41/50 
f 30/28/30 29/27/29 79/13/76 80/42/77 
f 29/27/29 28/26/28 81/40/78 79/13/76 
f 79/13/76 81/40/78 82/39/79 83/13/80 
f 80/42/77 79/13/76 83/13/80 84/41/81 
f 28/26/28 85/38/82 86/1/83 81/40/78 
f 85/38/82 45/38/45 87/1/84 86/1/83 
f 86/1/83 87/1/84 56/40/54 88/40/85 
f 81/40/78 86/1/83 88/40/85 82/39/79 
f 60/16/58 89/12/86 90/12/87 91/47/88 
f 89/12/86 40/9/40 92/49/89 90/12/87 
f 90/12/87 92/49/89 69/48/66 66/12/63 
f 91/47/88 90/12/87 66/12/63 65/46/62 
f 40/9/40 43/37/43 93/9/90 92/49/89 
f 43/37/43 47/37/45 94/9/91 93/9/90 
f 93/9/90 94/9/91 71/49/68 70/49/67 
f 92/49/89 93/9/90 70/49/67 69/48/66 
f 24/23/24 27/25/27 95/12/92 96/49/93 
f 27/25/27 32/30/32 97/47/94 95/12/92 
f 95/12/92 97/47/94 98/46/95 99/12/96 
f 96/49/93 95/12/92 99/12/96 100/48/97 
f 32/30/32 101/45/98 102/16/99 97/47/94 
f 101/45/98 62/45/60 103/16/100 102/16/99 
f 102/16/99 103/16/100 73/47/70 104/47/101 
f 97/47/94 102/16/99 104/47/101 98/46/95 
f 5/5/5 34/50/34 105/51/102 6/6/6 
f 34/50/34 33/14/33 41/15/41 105/51/102 
f 105/51/102 41/15/41 40/16/40 106/52/103 
f 6/6/6 105/51/102 106/52/103 7/7/7 
f 16/5/16 107/50/104 108/51/105 17/6/17 
f 107/50/104 60/14/58 57/43/55 108/51/105 
f 108/51/105 57/43/55 39/16/39 38/52/38 
f 17/6/17 108/51/105 38/52/38 18/7/18 
f 7/19/7 106/53/103 109/54/106 23/20/23 
f 106/53/103 40/1/40 89/13/86 109/54/106 
f 109/54/106 89/13/86 60/14/58 107/55/104 
f 23/20/23 109/54/106 107/55/104 16/21/16 
f 5/33/5 2/56/2 110/57/107 37/34/37 
f 2/56/2 1/1/1 20/13/20 110/57/107 
f 110/57/107 20/13/20 10/14/10 13/58/13 
f 37/34/37 110/57/107 13/58/13 18/35/18 
f 45/38/45 85/38/82 111/10/108 46/10/45 
f 85/38/82 28/26/28 25/24/25 111/10/108 
f 111/10/108 25/24/25 24/23/24 112/37/109 
f 46/10/45 111/10/108 112/37/109 47/37/45 
f 54/42/52 113/42/110 114/13/111 55/13/53 
f 113/42/110 84/41/81 83/13/80 114/13/111 
f 114/13/111 83/13/80 82/39/79 88/40/85 
f 55/13/53 114/13/111 88/40/85 56/40/54 
f 62/45/60 101/45/98 115/15/112 63/15/61 
f 101/45/98 32/30/32 31/29/31 115/15/112 
f 115/15/112 31/29/31 30/28/30 116/44/113 
f 63/15/61 115/15/112 116/44/113 64/44/61 
f 71/49/68 117/49/114 118/12/115 72/12/69 
f 117/49/114 100/48/97 99/12/96 118/12/115 
f 118/12/115 99/12/96 98/46/95 104/47/101 
f 72/12/69 118/12/115 104/47/101 73/47/70 
f 64/44/61 116/44/113 119/14/116 78/14/75 
f 116/44/113 30/28/30 80/42/77 119/14/116 
f 119/14/116 80/42/77 84/41/81 113/42/110 
f 78/14/75 119/14/116 113/42/110 54/42/52 
f 45/38/45 44/38/44 120/1/117 87/1/84 
f 44/38/44 33/1/33 75/40/72 120/1/117 
f 120/1/117 75/40/72 48/39/46 51/40/49 
f 87/1/84 120/1/117 51/40/49 56/40/54 
f 47/37/45 112/37/109 121/9/118 94/9/91 
f 112/37/109 24/23/24 96/49/93 121/9/118 
f 121/9/118 96/49/93 100/48/97 117/49/114 
f 94/9/91 121/9/118 117/49/114 71/49/68 
f 62/45/60 61/45/59 122/16/119 103/16/100 
f 61/45/59 60/16/58 91/47/88 122/16/119 
f 122/16/119 91/47/88 65/46/62 68/47/65 
f 103/16/100 122/16/119 68/47/65 73/47/70 
# 120 polygons

